<?xml version="1.0" encoding="UTF-8" standalone="no"?>
<!DOCTYPE svg PUBLIC "-//W3C//DTD SVG 1.1//EN"
 "http://www.w3.org/Graphics/SVG/1.1/DTD/svg11.dtd">
<!-- Generated by graphviz version 2.44.1 (20200629.0846)
 -->
<!-- Title: G Pages: 1 -->
<svg width="796pt" height="386pt"
 viewBox="0.00 0.00 796.20 385.93" xmlns="http://www.w3.org/2000/svg" xmlns:xlink="http://www.w3.org/1999/xlink">
<g id="graph0" class="graph" transform="scale(1 1) rotate(0) translate(21.6 364.33)">
<title>G</title>
<polygon fill="#111111" stroke="transparent" points="-21.6,21.6 -21.6,-364.33 774.6,-364.33 774.6,21.6 -21.6,21.6"/>
<!-- defaults.ts -->
<g id="node1" class="node">
<title>defaults.ts</title>
<path fill="none" stroke="#cfffac" d="M745.33,-191.7C745.33,-191.7 682.67,-191.7 682.67,-191.7 678.83,-191.7 675,-187.87 675,-184.04 675,-184.04 675,-176.37 675,-176.37 675,-172.54 678.83,-168.7 682.67,-168.7 682.67,-168.7 745.33,-168.7 745.33,-168.7 749.17,-168.7 753,-172.54 753,-176.37 753,-176.37 753,-184.04 753,-184.04 753,-187.87 749.17,-191.7 745.33,-191.7"/>
<text text-anchor="middle" x="714" y="-176.5" font-family="Arial" font-size="14.00" fill="#cfffac">defaults.ts</text>
</g>
<!-- index.ts -->
<g id="node2" class="node">
<title>index.ts</title>
<path fill="none" stroke="#c6c5fe" d="M55.33,-210.7C55.33,-210.7 7.67,-210.7 7.67,-210.7 3.83,-210.7 0,-206.87 0,-203.04 0,-203.04 0,-195.37 0,-195.37 0,-191.54 3.83,-187.7 7.67,-187.7 7.67,-187.7 55.33,-187.7 55.33,-187.7 59.17,-187.7 63,-191.54 63,-195.37 63,-195.37 63,-203.04 63,-203.04 63,-206.87 59.17,-210.7 55.33,-210.7"/>
<text text-anchor="middle" x="31.5" y="-195.5" font-family="Arial" font-size="14.00" fill="#c6c5fe">index.ts</text>
</g>
<!-- index.ts&#45;&gt;defaults.ts -->
<g id="edge1" class="edge">
<title>index.ts&#45;&gt;defaults.ts</title>
<path fill="none" stroke="#757575" d="M44.01,-211.12C56.39,-223.13 77.24,-241.15 99,-250.2 320.89,-342.56 424.12,-386.86 639,-279.2 671.4,-262.97 693.25,-225.07 704.38,-201.16"/>
<polygon fill="#757575" stroke="#757575" points="707.64,-202.43 708.49,-191.87 701.24,-199.6 707.64,-202.43"/>
</g>
<!-- message.ts -->
<g id="node3" class="node">
<title>message.ts</title>
<path fill="none" stroke="#c6c5fe" d="M610.83,-269.7C610.83,-269.7 540.17,-269.7 540.17,-269.7 536.33,-269.7 532.5,-265.87 532.5,-262.04 532.5,-262.04 532.5,-254.37 532.5,-254.37 532.5,-250.54 536.33,-246.7 540.17,-246.7 540.17,-246.7 610.83,-246.7 610.83,-246.7 614.67,-246.7 618.5,-250.54 618.5,-254.37 618.5,-254.37 618.5,-262.04 618.5,-262.04 618.5,-265.87 614.67,-269.7 610.83,-269.7"/>
<text text-anchor="middle" x="575.5" y="-254.5" font-family="Arial" font-size="14.00" fill="#c6c5fe">message.ts</text>
</g>
<!-- index.ts&#45;&gt;message.ts -->
<g id="edge2" class="edge">
<title>index.ts&#45;&gt;message.ts</title>
<path fill="none" stroke="#757575" d="M63.12,-208.88C111.1,-223.47 207.18,-250.45 291,-260.2 372.67,-269.71 393.78,-261.04 476,-260.2 491.01,-260.05 507.3,-259.77 522.23,-259.46"/>
<polygon fill="#757575" stroke="#757575" points="522.4,-262.96 532.32,-259.25 522.25,-255.96 522.4,-262.96"/>
</g>
<!-- render/arrows/render.ts -->
<g id="node4" class="node">
<title>render/arrows/render.ts</title>
<path fill="none" stroke="#c6c5fe" d="M247.33,-90.7C247.33,-90.7 106.67,-90.7 106.67,-90.7 102.83,-90.7 99,-86.87 99,-83.04 99,-83.04 99,-75.37 99,-75.37 99,-71.54 102.83,-67.7 106.67,-67.7 106.67,-67.7 247.33,-67.7 247.33,-67.7 251.17,-67.7 255,-71.54 255,-75.37 255,-75.37 255,-83.04 255,-83.04 255,-86.87 251.17,-90.7 247.33,-90.7"/>
<text text-anchor="middle" x="177" y="-75.5" font-family="Arial" font-size="14.00" fill="#c6c5fe">render/arrows/render.ts</text>
</g>
<!-- index.ts&#45;&gt;render/arrows/render.ts -->
<g id="edge3" class="edge">
<title>index.ts&#45;&gt;render/arrows/render.ts</title>
<path fill="none" stroke="#757575" d="M46.26,-187.7C71.27,-166.79 124.35,-122.4 154.28,-97.36"/>
<polygon fill="#757575" stroke="#757575" points="156.65,-99.95 162.07,-90.85 152.15,-94.58 156.65,-99.95"/>
</g>
<!-- render/highlights/render.ts -->
<g id="node5" class="node">
<title>render/highlights/render.ts</title>
<path fill="none" stroke="#c6c5fe" d="M462.33,-170.7C462.33,-170.7 304.67,-170.7 304.67,-170.7 300.83,-170.7 297,-166.87 297,-163.04 297,-163.04 297,-155.37 297,-155.37 297,-151.54 300.83,-147.7 304.67,-147.7 304.67,-147.7 462.33,-147.7 462.33,-147.7 466.17,-147.7 470,-151.54 470,-155.37 470,-155.37 470,-163.04 470,-163.04 470,-166.87 466.17,-170.7 462.33,-170.7"/>
<text text-anchor="middle" x="383.5" y="-155.5" font-family="Arial" font-size="14.00" fill="#c6c5fe">render/highlights/render.ts</text>
</g>
<!-- index.ts&#45;&gt;render/highlights/render.ts -->
<g id="edge4" class="edge">
<title>index.ts&#45;&gt;render/highlights/render.ts</title>
<path fill="none" stroke="#757575" d="M63.16,-191.97C74.38,-189.53 87.22,-186.98 99,-185.2 161.23,-175.83 231.69,-169.35 286.79,-165.2"/>
<polygon fill="#757575" stroke="#757575" points="287.19,-168.68 296.9,-164.46 286.67,-161.7 287.19,-168.68"/>
</g>
<!-- state.ts -->
<g id="node6" class="node">
<title>state.ts</title>
<path fill="none" stroke="#c6c5fe" d="M597.83,-151.7C597.83,-151.7 553.17,-151.7 553.17,-151.7 549.33,-151.7 545.5,-147.87 545.5,-144.04 545.5,-144.04 545.5,-136.37 545.5,-136.37 545.5,-132.54 549.33,-128.7 553.17,-128.7 553.17,-128.7 597.83,-128.7 597.83,-128.7 601.67,-128.7 605.5,-132.54 605.5,-136.37 605.5,-136.37 605.5,-144.04 605.5,-144.04 605.5,-147.87 601.67,-151.7 597.83,-151.7"/>
<text text-anchor="middle" x="575.5" y="-136.5" font-family="Arial" font-size="14.00" fill="#c6c5fe">state.ts</text>
</g>
<!-- index.ts&#45;&gt;state.ts -->
<g id="edge5" class="edge">
<title>index.ts&#45;&gt;state.ts</title>
<path fill="none" stroke="#757575" d="M63.07,-201.44C135.69,-206 323.88,-213.31 476,-180.2 499.3,-175.13 524.16,-165 543.08,-156.2"/>
<polygon fill="#757575" stroke="#757575" points="544.61,-159.35 552.13,-151.88 541.59,-153.03 544.61,-159.35"/>
</g>
<!-- message.ts&#45;&gt;defaults.ts -->
<g id="edge6" class="edge">
<title>message.ts&#45;&gt;defaults.ts</title>
<path fill="none" stroke="#757575" d="M607.96,-246.68C618.09,-242.56 629.22,-237.59 639,-232.2 657.11,-222.23 676.17,-208.76 690.41,-198.03"/>
<polygon fill="#757575" stroke="#757575" points="692.79,-200.61 698.6,-191.76 688.53,-195.06 692.79,-200.61"/>
</g>
<!-- render/arrows/render.ts&#45;&gt;defaults.ts -->
<g id="edge12" class="edge">
<title>render/arrows/render.ts&#45;&gt;defaults.ts</title>
<path fill="none" stroke="#757575" d="M202.54,-67.69C275.35,-35.35 494.11,48.39 639,-39.2 682.15,-65.29 701.38,-125.77 708.87,-158.4"/>
<polygon fill="#757575" stroke="#757575" points="705.47,-159.26 710.97,-168.31 712.32,-157.8 705.47,-159.26"/>
</g>
<!-- render/arrows/render.ts&#45;&gt;state.ts -->
<g id="edge15" class="edge">
<title>render/arrows/render.ts&#45;&gt;state.ts</title>
<path fill="none" stroke="#757575" d="M241,-90.72C257.27,-93.59 274.77,-96.6 291,-99.2 378.18,-113.22 480.81,-127.52 535.51,-134.96"/>
<polygon fill="#757575" stroke="#757575" points="535.1,-138.44 545.48,-136.31 536.04,-131.5 535.1,-138.44"/>
</g>
<!-- render/arrows/defs/render.ts -->
<g id="node8" class="node">
<title>render/arrows/defs/render.ts</title>
<path fill="none" stroke="#c6c5fe" d="M468.33,-90.7C468.33,-90.7 298.67,-90.7 298.67,-90.7 294.83,-90.7 291,-86.87 291,-83.04 291,-83.04 291,-75.37 291,-75.37 291,-71.54 294.83,-67.7 298.67,-67.7 298.67,-67.7 468.33,-67.7 468.33,-67.7 472.17,-67.7 476,-71.54 476,-75.37 476,-75.37 476,-83.04 476,-83.04 476,-86.87 472.17,-90.7 468.33,-90.7"/>
<text text-anchor="middle" x="383.5" y="-75.5" font-family="Arial" font-size="14.00" fill="#c6c5fe">render/arrows/defs/render.ts</text>
</g>
<!-- render/arrows/render.ts&#45;&gt;render/arrows/defs/render.ts -->
<g id="edge13" class="edge">
<title>render/arrows/render.ts&#45;&gt;render/arrows/defs/render.ts</title>
<path fill="none" stroke="#757575" d="M255.02,-79.2C263.4,-79.2 272.03,-79.2 280.65,-79.2"/>
<polygon fill="#757575" stroke="#757575" points="280.75,-82.7 290.75,-79.2 280.75,-75.7 280.75,-82.7"/>
</g>
<!-- render/common.ts -->
<g id="node9" class="node">
<title>render/common.ts</title>
<path fill="none" stroke="#cfffac" d="M631.33,-71.7C631.33,-71.7 519.67,-71.7 519.67,-71.7 515.83,-71.7 512,-67.87 512,-64.04 512,-64.04 512,-56.37 512,-56.37 512,-52.54 515.83,-48.7 519.67,-48.7 519.67,-48.7 631.33,-48.7 631.33,-48.7 635.17,-48.7 639,-52.54 639,-56.37 639,-56.37 639,-64.04 639,-64.04 639,-67.87 635.17,-71.7 631.33,-71.7"/>
<text text-anchor="middle" x="575.5" y="-56.5" font-family="Arial" font-size="14.00" fill="#cfffac">render/common.ts</text>
</g>
<!-- render/arrows/render.ts&#45;&gt;render/common.ts -->
<g id="edge14" class="edge">
<title>render/arrows/render.ts&#45;&gt;render/common.ts</title>
<path fill="none" stroke="#757575" d="M228.91,-67.69C248.24,-63.86 270.53,-60.09 291,-58.2 372.88,-50.66 393.78,-57.37 476,-58.2 484.36,-58.29 493.12,-58.41 501.82,-58.56"/>
<polygon fill="#757575" stroke="#757575" points="501.91,-62.06 511.97,-58.74 502.04,-55.06 501.91,-62.06"/>
</g>
<!-- render/highlights/render.ts&#45;&gt;defaults.ts -->
<g id="edge16" class="edge">
<title>render/highlights/render.ts&#45;&gt;defaults.ts</title>
<path fill="none" stroke="#757575" d="M470.38,-164.69C532.27,-168.65 613.55,-173.85 664.54,-177.11"/>
<polygon fill="#757575" stroke="#757575" points="664.43,-180.61 674.63,-177.75 664.87,-173.62 664.43,-180.61"/>
</g>
<!-- render/highlights/render.ts&#45;&gt;state.ts -->
<g id="edge18" class="edge">
<title>render/highlights/render.ts&#45;&gt;state.ts</title>
<path fill="none" stroke="#757575" d="M470.05,-150.65C492.82,-148.37 516.33,-146.02 535.26,-144.13"/>
<polygon fill="#757575" stroke="#757575" points="535.67,-147.6 545.27,-143.13 534.97,-140.64 535.67,-147.6"/>
</g>
<!-- render/highlights/render.ts&#45;&gt;render/common.ts -->
<g id="edge17" class="edge">
<title>render/highlights/render.ts&#45;&gt;render/common.ts</title>
<path fill="none" stroke="#757575" d="M406.67,-147.65C440.33,-130.11 504.48,-96.69 542.98,-76.63"/>
<polygon fill="#757575" stroke="#757575" points="544.93,-79.56 552.18,-71.83 541.69,-73.35 544.93,-79.56"/>
</g>
<!-- state.ts&#45;&gt;defaults.ts -->
<g id="edge19" class="edge">
<title>state.ts&#45;&gt;defaults.ts</title>
<path fill="none" stroke="#757575" d="M605.78,-148.79C623.07,-153.85 645.38,-160.39 665.17,-166.19"/>
<polygon fill="#757575" stroke="#757575" points="664.36,-169.6 674.94,-169.05 666.33,-162.88 664.36,-169.6"/>
</g>
<!-- options.ts -->
<g id="node7" class="node">
<title>options.ts</title>
<path fill="none" stroke="#c6c5fe" d="M412.83,-250.7C412.83,-250.7 354.17,-250.7 354.17,-250.7 350.33,-250.7 346.5,-246.87 346.5,-243.04 346.5,-243.04 346.5,-235.37 346.5,-235.37 346.5,-231.54 350.33,-227.7 354.17,-227.7 354.17,-227.7 412.83,-227.7 412.83,-227.7 416.67,-227.7 420.5,-231.54 420.5,-235.37 420.5,-235.37 420.5,-243.04 420.5,-243.04 420.5,-246.87 416.67,-250.7 412.83,-250.7"/>
<text text-anchor="middle" x="383.5" y="-235.5" font-family="Arial" font-size="14.00" fill="#c6c5fe">options.ts</text>
</g>
<!-- options.ts&#45;&gt;defaults.ts -->
<g id="edge7" class="edge">
<title>options.ts&#45;&gt;defaults.ts</title>
<path fill="none" stroke="#757575" d="M420.59,-232.72C479.92,-222.07 598.09,-200.84 664.61,-188.9"/>
<polygon fill="#757575" stroke="#757575" points="665.6,-192.27 674.82,-187.06 664.36,-185.38 665.6,-192.27"/>
</g>
<!-- options.ts&#45;&gt;message.ts -->
<g id="edge8" class="edge">
<title>options.ts&#45;&gt;message.ts</title>
<path fill="none" stroke="#757575" d="M420.68,-242.82C449.44,-245.7 490.06,-249.76 522.33,-252.99"/>
<polygon fill="#757575" stroke="#757575" points="522.19,-256.49 532.49,-254 522.89,-249.53 522.19,-256.49"/>
</g>
<!-- render/arrows/defs/render.ts&#45;&gt;defaults.ts -->
<g id="edge9" class="edge">
<title>render/arrows/defs/render.ts&#45;&gt;defaults.ts</title>
<path fill="none" stroke="#757575" d="M476.11,-82.48C526.06,-87.06 587.93,-97.37 639,-120.2 660.46,-129.8 680.89,-147.23 694.83,-160.84"/>
<polygon fill="#757575" stroke="#757575" points="692.72,-163.68 702.25,-168.33 697.7,-158.76 692.72,-163.68"/>
</g>
<!-- render/arrows/defs/render.ts&#45;&gt;state.ts -->
<g id="edge11" class="edge">
<title>render/arrows/defs/render.ts&#45;&gt;state.ts</title>
<path fill="none" stroke="#757575" d="M427.5,-90.8C442.87,-95.11 460.27,-100.18 476,-105.2 495.84,-111.54 517.68,-119.23 535.75,-125.78"/>
<polygon fill="#757575" stroke="#757575" points="534.77,-129.15 545.36,-129.29 537.17,-122.57 534.77,-129.15"/>
</g>
<!-- render/arrows/defs/render.ts&#45;&gt;render/common.ts -->
<g id="edge10" class="edge">
<title>render/arrows/defs/render.ts&#45;&gt;render/common.ts</title>
<path fill="none" stroke="#757575" d="M476.16,-70.04C484.73,-69.18 493.33,-68.32 501.69,-67.48"/>
<polygon fill="#757575" stroke="#757575" points="502.15,-70.96 511.75,-66.48 501.46,-63.99 502.15,-70.96"/>
</g>
</g>
</svg>
