<?xml version="1.0" encoding="UTF-8" standalone="no"?>
<!DOCTYPE svg PUBLIC "-//W3C//DTD SVG 1.1//EN"
 "http://www.w3.org/Graphics/SVG/1.1/DTD/svg11.dtd">
<!-- Generated by graphviz version 2.44.1 (20200629.0846)
 -->
<!-- Title: G Pages: 1 -->
<svg width="816pt" height="412pt"
 viewBox="0.00 0.00 816.20 412.24" xmlns="http://www.w3.org/2000/svg" xmlns:xlink="http://www.w3.org/1999/xlink">
<g id="graph0" class="graph" transform="scale(1 1) rotate(0) translate(21.6 390.64)">
<title>G</title>
<polygon fill="#111111" stroke="transparent" points="-21.6,21.6 -21.6,-390.64 794.6,-390.64 794.6,21.6 -21.6,21.6"/>
<!-- defaults.ts -->
<g id="node1" class="node">
<title>defaults.ts</title>
<path fill="none" stroke="#cfffac" d="M765.33,-199.96C765.33,-199.96 702.67,-199.96 702.67,-199.96 698.83,-199.96 695,-196.12 695,-192.29 695,-192.29 695,-184.62 695,-184.62 695,-180.79 698.83,-176.96 702.67,-176.96 702.67,-176.96 765.33,-176.96 765.33,-176.96 769.17,-176.96 773,-180.79 773,-184.62 773,-184.62 773,-192.29 773,-192.29 773,-196.12 769.17,-199.96 765.33,-199.96"/>
<text text-anchor="middle" x="734" y="-184.76" font-family="Arial" font-size="14.00" fill="#cfffac">defaults.ts</text>
</g>
<!-- index.ts -->
<g id="node2" class="node">
<title>index.ts</title>
<path fill="none" stroke="#c6c5fe" d="M55.33,-229.96C55.33,-229.96 7.67,-229.96 7.67,-229.96 3.83,-229.96 0,-226.12 0,-222.29 0,-222.29 0,-214.62 0,-214.62 0,-210.79 3.83,-206.96 7.67,-206.96 7.67,-206.96 55.33,-206.96 55.33,-206.96 59.17,-206.96 63,-210.79 63,-214.62 63,-214.62 63,-222.29 63,-222.29 63,-226.12 59.17,-229.96 55.33,-229.96"/>
<text text-anchor="middle" x="31.5" y="-214.76" font-family="Arial" font-size="14.00" fill="#c6c5fe">index.ts</text>
</g>
<!-- index.ts&#45;&gt;defaults.ts -->
<g id="edge1" class="edge">
<title>index.ts&#45;&gt;defaults.ts</title>
<path fill="none" stroke="#757575" d="M45.36,-230.23C58.14,-241.4 78.72,-257.99 99,-268.46 178.58,-309.5 202.52,-315.74 291,-329.46 452.66,-354.52 519.82,-407.43 659,-321.46 699.62,-296.36 719.77,-240.43 728.1,-209.7"/>
<polygon fill="#757575" stroke="#757575" points="731.5,-210.52 730.57,-199.97 724.72,-208.8 731.5,-210.52"/>
</g>
<!-- message.ts -->
<g id="node3" class="node">
<title>message.ts</title>
<path fill="none" stroke="#c6c5fe" d="M620.83,-138.96C620.83,-138.96 550.17,-138.96 550.17,-138.96 546.33,-138.96 542.5,-135.12 542.5,-131.29 542.5,-131.29 542.5,-123.62 542.5,-123.62 542.5,-119.79 546.33,-115.96 550.17,-115.96 550.17,-115.96 620.83,-115.96 620.83,-115.96 624.67,-115.96 628.5,-119.79 628.5,-123.62 628.5,-123.62 628.5,-131.29 628.5,-131.29 628.5,-135.12 624.67,-138.96 620.83,-138.96"/>
<text text-anchor="middle" x="585.5" y="-123.76" font-family="Arial" font-size="14.00" fill="#c6c5fe">message.ts</text>
</g>
<!-- index.ts&#45;&gt;message.ts -->
<g id="edge2" class="edge">
<title>index.ts&#45;&gt;message.ts</title>
<path fill="none" stroke="#757575" d="M42.92,-206.74C55.01,-194.06 76.2,-174.44 99,-165.46 247.44,-106.94 440.88,-114.05 532.29,-121.83"/>
<polygon fill="#757575" stroke="#757575" points="532.13,-125.32 542.4,-122.72 532.75,-118.35 532.13,-125.32"/>
</g>
<!-- render/arrows/render.ts -->
<g id="node4" class="node">
<title>render/arrows/render.ts</title>
<path fill="none" stroke="#c6c5fe" d="M247.33,-229.96C247.33,-229.96 106.67,-229.96 106.67,-229.96 102.83,-229.96 99,-226.12 99,-222.29 99,-222.29 99,-214.62 99,-214.62 99,-210.79 102.83,-206.96 106.67,-206.96 106.67,-206.96 247.33,-206.96 247.33,-206.96 251.17,-206.96 255,-210.79 255,-214.62 255,-214.62 255,-222.29 255,-222.29 255,-226.12 251.17,-229.96 247.33,-229.96"/>
<text text-anchor="middle" x="177" y="-214.76" font-family="Arial" font-size="14.00" fill="#c6c5fe">render/arrows/render.ts</text>
</g>
<!-- index.ts&#45;&gt;render/arrows/render.ts -->
<g id="edge3" class="edge">
<title>index.ts&#45;&gt;render/arrows/render.ts</title>
<path fill="none" stroke="#757575" d="M63.28,-218.46C71.09,-218.46 79.86,-218.46 88.98,-218.46"/>
<polygon fill="#757575" stroke="#757575" points="88.98,-221.96 98.98,-218.46 88.98,-214.96 88.98,-221.96"/>
</g>
<!-- render/highlights/render.ts -->
<g id="node5" class="node">
<title>render/highlights/render.ts</title>
<path fill="none" stroke="#c6c5fe" d="M462.33,-299.96C462.33,-299.96 304.67,-299.96 304.67,-299.96 300.83,-299.96 297,-296.12 297,-292.29 297,-292.29 297,-284.62 297,-284.62 297,-280.79 300.83,-276.96 304.67,-276.96 304.67,-276.96 462.33,-276.96 462.33,-276.96 466.17,-276.96 470,-280.79 470,-284.62 470,-284.62 470,-292.29 470,-292.29 470,-296.12 466.17,-299.96 462.33,-299.96"/>
<text text-anchor="middle" x="383.5" y="-284.76" font-family="Arial" font-size="14.00" fill="#c6c5fe">render/highlights/render.ts</text>
</g>
<!-- index.ts&#45;&gt;render/highlights/render.ts -->
<g id="edge4" class="edge">
<title>index.ts&#45;&gt;render/highlights/render.ts</title>
<path fill="none" stroke="#757575" d="M63.05,-229.05C74.26,-232.69 87.12,-236.57 99,-239.46 161.37,-254.62 232.56,-266.91 287.99,-275.38"/>
<polygon fill="#757575" stroke="#757575" points="287.74,-278.89 298.16,-276.92 288.79,-271.96 287.74,-278.89"/>
</g>
<!-- state.ts -->
<g id="node6" class="node">
<title>state.ts</title>
<path fill="none" stroke="#c6c5fe" d="M607.83,-179.96C607.83,-179.96 563.17,-179.96 563.17,-179.96 559.33,-179.96 555.5,-176.12 555.5,-172.29 555.5,-172.29 555.5,-164.62 555.5,-164.62 555.5,-160.79 559.33,-156.96 563.17,-156.96 563.17,-156.96 607.83,-156.96 607.83,-156.96 611.67,-156.96 615.5,-160.79 615.5,-164.62 615.5,-164.62 615.5,-172.29 615.5,-172.29 615.5,-176.12 611.67,-179.96 607.83,-179.96"/>
<text text-anchor="middle" x="585.5" y="-164.76" font-family="Arial" font-size="14.00" fill="#c6c5fe">state.ts</text>
</g>
<!-- index.ts&#45;&gt;state.ts -->
<g id="edge5" class="edge">
<title>index.ts&#45;&gt;state.ts</title>
<path fill="none" stroke="#757575" d="M63.07,-208.37C74.29,-204.91 87.14,-201.21 99,-198.46 183.26,-178.85 204.78,-173.59 291,-166.46 372.94,-159.67 393.78,-165.7 476,-166.46 498.94,-166.67 524.61,-167.13 545.22,-167.56"/>
<polygon fill="#757575" stroke="#757575" points="545.42,-171.06 555.49,-167.78 545.57,-164.06 545.42,-171.06"/>
</g>
<!-- message.ts&#45;&gt;defaults.ts -->
<g id="edge6" class="edge">
<title>message.ts&#45;&gt;defaults.ts</title>
<path fill="none" stroke="#757575" d="M628.81,-138.06C638.85,-141.03 649.42,-144.53 659,-148.46 674.92,-154.98 691.86,-163.97 705.51,-171.77"/>
<polygon fill="#757575" stroke="#757575" points="703.98,-174.93 714.38,-176.94 707.5,-168.88 703.98,-174.93"/>
</g>
<!-- render/arrows/render.ts&#45;&gt;defaults.ts -->
<g id="edge15" class="edge">
<title>render/arrows/render.ts&#45;&gt;defaults.ts</title>
<path fill="none" stroke="#757575" d="M187.38,-229.98C205.06,-250.68 245.63,-293.46 291,-309.46 368.54,-336.8 393.82,-312.15 476,-309.46 557.46,-306.79 588.26,-337.95 659,-297.46 693.02,-277.98 714.66,-235.73 725.24,-209.92"/>
<polygon fill="#757575" stroke="#757575" points="728.62,-210.89 728.99,-200.3 722.1,-208.35 728.62,-210.89"/>
</g>
<!-- render/arrows/render.ts&#45;&gt;state.ts -->
<g id="edge18" class="edge">
<title>render/arrows/render.ts&#45;&gt;state.ts</title>
<path fill="none" stroke="#757575" d="M214.26,-206.93C236.23,-200.43 264.97,-192.76 291,-188.46 380.94,-173.59 488.15,-169.73 544.82,-168.76"/>
<polygon fill="#757575" stroke="#757575" points="545.18,-172.25 555.13,-168.6 545.07,-165.25 545.18,-172.25"/>
</g>
<!-- render/arrows/defs/render.ts -->
<g id="node10" class="node">
<title>render/arrows/defs/render.ts</title>
<path fill="none" stroke="#c6c5fe" d="M468.33,-219.96C468.33,-219.96 298.67,-219.96 298.67,-219.96 294.83,-219.96 291,-216.12 291,-212.29 291,-212.29 291,-204.62 291,-204.62 291,-200.79 294.83,-196.96 298.67,-196.96 298.67,-196.96 468.33,-196.96 468.33,-196.96 472.17,-196.96 476,-200.79 476,-204.62 476,-204.62 476,-212.29 476,-212.29 476,-216.12 472.17,-219.96 468.33,-219.96"/>
<text text-anchor="middle" x="383.5" y="-204.76" font-family="Arial" font-size="14.00" fill="#c6c5fe">render/arrows/defs/render.ts</text>
</g>
<!-- render/arrows/render.ts&#45;&gt;render/arrows/defs/render.ts -->
<g id="edge16" class="edge">
<title>render/arrows/render.ts&#45;&gt;render/arrows/defs/render.ts</title>
<path fill="none" stroke="#757575" d="M255.02,-214.69C263.4,-214.28 272.03,-213.86 280.65,-213.44"/>
<polygon fill="#757575" stroke="#757575" points="280.93,-216.93 290.75,-212.94 280.59,-209.93 280.93,-216.93"/>
</g>
<!-- render/common.ts -->
<g id="node11" class="node">
<title>render/common.ts</title>
<path fill="none" stroke="#cfffac" d="M641.33,-259.96C641.33,-259.96 529.67,-259.96 529.67,-259.96 525.83,-259.96 522,-256.12 522,-252.29 522,-252.29 522,-244.62 522,-244.62 522,-240.79 525.83,-236.96 529.67,-236.96 529.67,-236.96 641.33,-236.96 641.33,-236.96 645.17,-236.96 649,-240.79 649,-244.62 649,-244.62 649,-252.29 649,-252.29 649,-256.12 645.17,-259.96 641.33,-259.96"/>
<text text-anchor="middle" x="585.5" y="-244.76" font-family="Arial" font-size="14.00" fill="#cfffac">render/common.ts</text>
</g>
<!-- render/arrows/render.ts&#45;&gt;render/common.ts -->
<g id="edge17" class="edge">
<title>render/arrows/render.ts&#45;&gt;render/common.ts</title>
<path fill="none" stroke="#757575" d="M255.17,-226.3C267.16,-227.43 279.41,-228.52 291,-229.46 366.17,-235.55 452.31,-240.93 511.73,-244.4"/>
<polygon fill="#757575" stroke="#757575" points="511.58,-247.9 521.76,-244.98 511.98,-240.91 511.58,-247.9"/>
</g>
<!-- render/highlights/render.ts&#45;&gt;defaults.ts -->
<g id="edge19" class="edge">
<title>render/highlights/render.ts&#45;&gt;defaults.ts</title>
<path fill="none" stroke="#757575" d="M470.02,-298.45C526.41,-301.31 600.39,-297.75 659,-269.46 686.27,-256.29 708.21,-228.24 720.92,-208.86"/>
<polygon fill="#757575" stroke="#757575" points="724.04,-210.48 726.4,-200.15 718.11,-206.75 724.04,-210.48"/>
</g>
<!-- render/highlights/render.ts&#45;&gt;state.ts -->
<g id="edge21" class="edge">
<title>render/highlights/render.ts&#45;&gt;state.ts</title>
<path fill="none" stroke="#757575" d="M403.68,-276.95C439.13,-255.68 515.05,-210.13 556.34,-185.35"/>
<polygon fill="#757575" stroke="#757575" points="558.31,-188.25 565.09,-180.1 554.71,-182.25 558.31,-188.25"/>
</g>
<!-- render/highlights/render.ts&#45;&gt;render/common.ts -->
<g id="edge20" class="edge">
<title>render/highlights/render.ts&#45;&gt;render/common.ts</title>
<path fill="none" stroke="#757575" d="M442.08,-276.94C465.51,-272.25 492.75,-266.8 517.1,-261.94"/>
<polygon fill="#757575" stroke="#757575" points="517.86,-265.35 526.98,-259.96 516.49,-258.49 517.86,-265.35"/>
</g>
<!-- state.ts&#45;&gt;defaults.ts -->
<g id="edge22" class="edge">
<title>state.ts&#45;&gt;defaults.ts</title>
<path fill="none" stroke="#757575" d="M615.79,-172.45C635.49,-175.14 661.91,-178.75 684.69,-181.86"/>
<polygon fill="#757575" stroke="#757575" points="684.47,-185.36 694.86,-183.25 685.42,-178.43 684.47,-185.36"/>
</g>
<!-- options.ts -->
<g id="node7" class="node">
<title>options.ts</title>
<path fill="none" stroke="#c6c5fe" d="M412.83,-60.96C412.83,-60.96 354.17,-60.96 354.17,-60.96 350.33,-60.96 346.5,-57.12 346.5,-53.29 346.5,-53.29 346.5,-45.62 346.5,-45.62 346.5,-41.79 350.33,-37.96 354.17,-37.96 354.17,-37.96 412.83,-37.96 412.83,-37.96 416.67,-37.96 420.5,-41.79 420.5,-45.62 420.5,-45.62 420.5,-53.29 420.5,-53.29 420.5,-57.12 416.67,-60.96 412.83,-60.96"/>
<text text-anchor="middle" x="383.5" y="-45.76" font-family="Arial" font-size="14.00" fill="#c6c5fe">options.ts</text>
</g>
<!-- options.ts&#45;&gt;defaults.ts -->
<g id="edge7" class="edge">
<title>options.ts&#45;&gt;defaults.ts</title>
<path fill="none" stroke="#757575" d="M408.9,-37.93C459.95,-15.68 579.81,26.69 659,-24.46 708.22,-56.25 725.04,-129.51 730.52,-166.39"/>
<polygon fill="#757575" stroke="#757575" points="727.08,-167.14 731.87,-176.59 734.02,-166.21 727.08,-167.14"/>
</g>
<!-- options.ts&#45;&gt;message.ts -->
<g id="edge8" class="edge">
<title>options.ts&#45;&gt;message.ts</title>
<path fill="none" stroke="#757575" d="M420.87,-57.8C438.15,-62.55 458.74,-69.38 476,-78.46 493.94,-87.89 493.94,-97.25 512,-106.46 518.5,-109.77 525.6,-112.64 532.74,-115.09"/>
<polygon fill="#757575" stroke="#757575" points="531.85,-118.48 542.44,-118.19 533.98,-111.81 531.85,-118.48"/>
</g>
<!-- options/color&#45;picker.ts -->
<g id="node8" class="node">
<title>options/color&#45;picker.ts</title>
<path fill="none" stroke="#cfffac" d="M651.33,-97.96C651.33,-97.96 519.67,-97.96 519.67,-97.96 515.83,-97.96 512,-94.12 512,-90.29 512,-90.29 512,-82.62 512,-82.62 512,-78.79 515.83,-74.96 519.67,-74.96 519.67,-74.96 651.33,-74.96 651.33,-74.96 655.17,-74.96 659,-78.79 659,-82.62 659,-82.62 659,-90.29 659,-90.29 659,-94.12 655.17,-97.96 651.33,-97.96"/>
<text text-anchor="middle" x="585.5" y="-82.76" font-family="Arial" font-size="14.00" fill="#cfffac">options/color&#45;picker.ts</text>
</g>
<!-- options.ts&#45;&gt;options/color&#45;picker.ts -->
<g id="edge9" class="edge">
<title>options.ts&#45;&gt;options/color&#45;picker.ts</title>
<path fill="none" stroke="#757575" d="M420.72,-56.16C446.21,-60.87 481.2,-67.34 512.3,-73.1"/>
<polygon fill="#757575" stroke="#757575" points="511.77,-76.56 522.24,-74.94 513.04,-69.68 511.77,-76.56"/>
</g>
<!-- options/swatches.ts -->
<g id="node9" class="node">
<title>options/swatches.ts</title>
<path fill="none" stroke="#c6c5fe" d="M644.83,-56.96C644.83,-56.96 526.17,-56.96 526.17,-56.96 522.33,-56.96 518.5,-53.12 518.5,-49.29 518.5,-49.29 518.5,-41.62 518.5,-41.62 518.5,-37.79 522.33,-33.96 526.17,-33.96 526.17,-33.96 644.83,-33.96 644.83,-33.96 648.67,-33.96 652.5,-37.79 652.5,-41.62 652.5,-41.62 652.5,-49.29 652.5,-49.29 652.5,-53.12 648.67,-56.96 644.83,-56.96"/>
<text text-anchor="middle" x="585.5" y="-41.76" font-family="Arial" font-size="14.00" fill="#c6c5fe">options/swatches.ts</text>
</g>
<!-- options.ts&#45;&gt;options/swatches.ts -->
<g id="edge10" class="edge">
<title>options.ts&#45;&gt;options/swatches.ts</title>
<path fill="none" stroke="#757575" d="M420.72,-48.73C445.09,-48.24 478.14,-47.58 508.17,-46.98"/>
<polygon fill="#757575" stroke="#757575" points="508.29,-50.48 518.22,-46.78 508.15,-43.48 508.29,-50.48"/>
</g>
<!-- options/swatches.ts&#45;&gt;defaults.ts -->
<g id="edge11" class="edge">
<title>options/swatches.ts&#45;&gt;defaults.ts</title>
<path fill="none" stroke="#757575" d="M644.63,-57.07C649.75,-59.37 654.63,-62.14 659,-65.46 693.68,-91.77 715.49,-139.44 725.84,-167.07"/>
<polygon fill="#757575" stroke="#757575" points="722.58,-168.36 729.25,-176.6 729.17,-166 722.58,-168.36"/>
</g>
<!-- render/arrows/defs/render.ts&#45;&gt;defaults.ts -->
<g id="edge12" class="edge">
<title>render/arrows/defs/render.ts&#45;&gt;defaults.ts</title>
<path fill="none" stroke="#757575" d="M476.06,-203.2C542.8,-199.37 630.61,-194.33 684.37,-191.25"/>
<polygon fill="#757575" stroke="#757575" points="684.87,-194.72 694.65,-190.66 684.47,-187.73 684.87,-194.72"/>
</g>
<!-- render/arrows/defs/render.ts&#45;&gt;state.ts -->
<g id="edge14" class="edge">
<title>render/arrows/defs/render.ts&#45;&gt;state.ts</title>
<path fill="none" stroke="#757575" d="M442.08,-196.94C475.22,-190.31 515.98,-182.16 545.39,-176.28"/>
<polygon fill="#757575" stroke="#757575" points="546.17,-179.69 555.29,-174.3 544.8,-172.83 546.17,-179.69"/>
</g>
<!-- render/arrows/defs/render.ts&#45;&gt;render/common.ts -->
<g id="edge13" class="edge">
<title>render/arrows/defs/render.ts&#45;&gt;render/common.ts</title>
<path fill="none" stroke="#757575" d="M442.08,-219.97C465.51,-224.66 492.75,-230.11 517.1,-234.97"/>
<polygon fill="#757575" stroke="#757575" points="516.49,-238.42 526.98,-236.95 517.86,-231.56 516.49,-238.42"/>
</g>
</g>
</svg>
