<?xml version="1.0" encoding="UTF-8" standalone="no"?>
<!DOCTYPE svg PUBLIC "-//W3C//DTD SVG 1.1//EN"
 "http://www.w3.org/Graphics/SVG/1.1/DTD/svg11.dtd">
<!-- Generated by graphviz version 2.44.1 (20200629.0846)
 -->
<!-- Title: G Pages: 1 -->
<svg width="796pt" height="249pt"
 viewBox="0.00 0.00 796.20 249.18" xmlns="http://www.w3.org/2000/svg" xmlns:xlink="http://www.w3.org/1999/xlink">
<g id="graph0" class="graph" transform="scale(1 1) rotate(0) translate(21.6 227.58)">
<title>G</title>
<polygon fill="#111111" stroke="transparent" points="-21.6,21.6 -21.6,-227.58 774.6,-227.58 774.6,21.6 -21.6,21.6"/>
<!-- defaults.ts -->
<g id="node1" class="node">
<title>defaults.ts</title>
<path fill="none" stroke="#cfffac" d="M745.33,-84C745.33,-84 682.67,-84 682.67,-84 678.83,-84 675,-80.17 675,-76.33 675,-76.33 675,-68.67 675,-68.67 675,-64.83 678.83,-61 682.67,-61 682.67,-61 745.33,-61 745.33,-61 749.17,-61 753,-64.83 753,-68.67 753,-68.67 753,-76.33 753,-76.33 753,-80.17 749.17,-84 745.33,-84"/>
<text text-anchor="middle" x="714" y="-68.8" font-family="Arial" font-size="14.00" fill="#cfffac">defaults.ts</text>
</g>
<!-- id.ts -->
<g id="node2" class="node">
<title>id.ts</title>
<path fill="none" stroke="#cfffac" d="M50.83,-195C50.83,-195 12.17,-195 12.17,-195 8.33,-195 4.5,-191.17 4.5,-187.33 4.5,-187.33 4.5,-179.67 4.5,-179.67 4.5,-175.83 8.33,-172 12.17,-172 12.17,-172 50.83,-172 50.83,-172 54.67,-172 58.5,-175.83 58.5,-179.67 58.5,-179.67 58.5,-187.33 58.5,-187.33 58.5,-191.17 54.67,-195 50.83,-195"/>
<text text-anchor="middle" x="31.5" y="-179.8" font-family="Arial" font-size="14.00" fill="#cfffac">id.ts</text>
</g>
<!-- index.ts -->
<g id="node3" class="node">
<title>index.ts</title>
<path fill="none" stroke="#c6c5fe" d="M55.33,-154C55.33,-154 7.67,-154 7.67,-154 3.83,-154 0,-150.17 0,-146.33 0,-146.33 0,-138.67 0,-138.67 0,-134.83 3.83,-131 7.67,-131 7.67,-131 55.33,-131 55.33,-131 59.17,-131 63,-134.83 63,-138.67 63,-138.67 63,-146.33 63,-146.33 63,-150.17 59.17,-154 55.33,-154"/>
<text text-anchor="middle" x="31.5" y="-138.8" font-family="Arial" font-size="14.00" fill="#c6c5fe">index.ts</text>
</g>
<!-- index.ts&#45;&gt;defaults.ts -->
<g id="edge1" class="edge">
<title>index.ts&#45;&gt;defaults.ts</title>
<path fill="none" stroke="#757575" d="M57.92,-154.12C70.11,-159.25 85.07,-164.93 99,-168.5 261.66,-210.22 309.29,-213.66 476,-193.5 550.05,-184.55 574.85,-191.57 639,-153.5 664.76,-138.21 686.8,-111.14 699.96,-92.53"/>
<polygon fill="#757575" stroke="#757575" points="702.93,-94.39 705.69,-84.16 697.15,-90.44 702.93,-94.39"/>
</g>
<!-- render/arrows/render.ts -->
<g id="node4" class="node">
<title>render/arrows/render.ts</title>
<path fill="none" stroke="#c6c5fe" d="M247.33,-114C247.33,-114 106.67,-114 106.67,-114 102.83,-114 99,-110.17 99,-106.33 99,-106.33 99,-98.67 99,-98.67 99,-94.83 102.83,-91 106.67,-91 106.67,-91 247.33,-91 247.33,-91 251.17,-91 255,-94.83 255,-98.67 255,-98.67 255,-106.33 255,-106.33 255,-110.17 251.17,-114 247.33,-114"/>
<text text-anchor="middle" x="177" y="-98.8" font-family="Arial" font-size="14.00" fill="#c6c5fe">render/arrows/render.ts</text>
</g>
<!-- index.ts&#45;&gt;render/arrows/render.ts -->
<g id="edge2" class="edge">
<title>index.ts&#45;&gt;render/arrows/render.ts</title>
<path fill="none" stroke="#757575" d="M63.28,-133.92C81.19,-128.93 104.21,-122.51 124.78,-116.78"/>
<polygon fill="#757575" stroke="#757575" points="125.95,-120.08 134.65,-114.03 124.07,-113.34 125.95,-120.08"/>
</g>
<!-- render/highlights/render.ts -->
<g id="node5" class="node">
<title>render/highlights/render.ts</title>
<path fill="none" stroke="#c6c5fe" d="M462.33,-184C462.33,-184 304.67,-184 304.67,-184 300.83,-184 297,-180.17 297,-176.33 297,-176.33 297,-168.67 297,-168.67 297,-164.83 300.83,-161 304.67,-161 304.67,-161 462.33,-161 462.33,-161 466.17,-161 470,-164.83 470,-168.67 470,-168.67 470,-176.33 470,-176.33 470,-180.17 466.17,-184 462.33,-184"/>
<text text-anchor="middle" x="383.5" y="-168.8" font-family="Arial" font-size="14.00" fill="#c6c5fe">render/highlights/render.ts</text>
</g>
<!-- index.ts&#45;&gt;render/highlights/render.ts -->
<g id="edge3" class="edge">
<title>index.ts&#45;&gt;render/highlights/render.ts</title>
<path fill="none" stroke="#757575" d="M63.25,-145.14C112.64,-149.37 211.67,-157.86 286.4,-164.26"/>
<polygon fill="#757575" stroke="#757575" points="286.52,-167.79 296.78,-165.15 287.12,-160.81 286.52,-167.79"/>
</g>
<!-- state.ts -->
<g id="node6" class="node">
<title>state.ts</title>
<path fill="none" stroke="#c6c5fe" d="M597.83,-64C597.83,-64 553.17,-64 553.17,-64 549.33,-64 545.5,-60.17 545.5,-56.33 545.5,-56.33 545.5,-48.67 545.5,-48.67 545.5,-44.83 549.33,-41 553.17,-41 553.17,-41 597.83,-41 597.83,-41 601.67,-41 605.5,-44.83 605.5,-48.67 605.5,-48.67 605.5,-56.33 605.5,-56.33 605.5,-60.17 601.67,-64 597.83,-64"/>
<text text-anchor="middle" x="575.5" y="-48.8" font-family="Arial" font-size="14.00" fill="#c6c5fe">state.ts</text>
</g>
<!-- index.ts&#45;&gt;state.ts -->
<g id="edge4" class="edge">
<title>index.ts&#45;&gt;state.ts</title>
<path fill="none" stroke="#757575" d="M41.45,-130.9C53.07,-116.75 74.75,-93.25 99,-81.5 246.54,-10.01 450.7,-31.85 535.33,-45.34"/>
<polygon fill="#757575" stroke="#757575" points="534.84,-48.81 545.28,-46.98 535.98,-41.9 534.84,-48.81"/>
</g>
<!-- render/arrows/render.ts&#45;&gt;state.ts -->
<g id="edge11" class="edge">
<title>render/arrows/render.ts&#45;&gt;state.ts</title>
<path fill="none" stroke="#757575" d="M213.22,-90.87C235.31,-84.07 264.52,-75.97 291,-71.5 377.36,-56.91 480.31,-53.42 535.28,-52.65"/>
<polygon fill="#757575" stroke="#757575" points="535.34,-56.15 545.3,-52.53 535.26,-49.15 535.34,-56.15"/>
</g>
<!-- render/arrows/defs/render.ts -->
<g id="node8" class="node">
<title>render/arrows/defs/render.ts</title>
<path fill="none" stroke="#c6c5fe" d="M468.33,-104C468.33,-104 298.67,-104 298.67,-104 294.83,-104 291,-100.17 291,-96.33 291,-96.33 291,-88.67 291,-88.67 291,-84.83 294.83,-81 298.67,-81 298.67,-81 468.33,-81 468.33,-81 472.17,-81 476,-84.83 476,-88.67 476,-88.67 476,-96.33 476,-96.33 476,-100.17 472.17,-104 468.33,-104"/>
<text text-anchor="middle" x="383.5" y="-88.8" font-family="Arial" font-size="14.00" fill="#c6c5fe">render/arrows/defs/render.ts</text>
</g>
<!-- render/arrows/render.ts&#45;&gt;render/arrows/defs/render.ts -->
<g id="edge9" class="edge">
<title>render/arrows/render.ts&#45;&gt;render/arrows/defs/render.ts</title>
<path fill="none" stroke="#757575" d="M255.02,-98.73C263.4,-98.32 272.03,-97.9 280.65,-97.48"/>
<polygon fill="#757575" stroke="#757575" points="280.93,-100.97 290.75,-96.99 280.59,-93.98 280.93,-100.97"/>
</g>
<!-- render/common.ts -->
<g id="node9" class="node">
<title>render/common.ts</title>
<path fill="none" stroke="#cfffac" d="M631.33,-144C631.33,-144 519.67,-144 519.67,-144 515.83,-144 512,-140.17 512,-136.33 512,-136.33 512,-128.67 512,-128.67 512,-124.83 515.83,-121 519.67,-121 519.67,-121 631.33,-121 631.33,-121 635.17,-121 639,-124.83 639,-128.67 639,-128.67 639,-136.33 639,-136.33 639,-140.17 635.17,-144 631.33,-144"/>
<text text-anchor="middle" x="575.5" y="-128.8" font-family="Arial" font-size="14.00" fill="#cfffac">render/common.ts</text>
</g>
<!-- render/arrows/render.ts&#45;&gt;render/common.ts -->
<g id="edge10" class="edge">
<title>render/arrows/render.ts&#45;&gt;render/common.ts</title>
<path fill="none" stroke="#757575" d="M255.18,-109.52C267.17,-110.55 279.42,-111.58 291,-112.5 362.69,-118.2 444.64,-123.89 501.93,-127.74"/>
<polygon fill="#757575" stroke="#757575" points="501.77,-131.24 511.98,-128.41 502.24,-124.25 501.77,-131.24"/>
</g>
<!-- render/highlights/render.ts&#45;&gt;state.ts -->
<g id="edge13" class="edge">
<title>render/highlights/render.ts&#45;&gt;state.ts</title>
<path fill="none" stroke="#757575" d="M402.72,-160.99C436.25,-139.81 507.92,-94.55 547.26,-69.71"/>
<polygon fill="#757575" stroke="#757575" points="549.47,-72.45 556.06,-64.15 545.73,-66.53 549.47,-72.45"/>
</g>
<!-- render/highlights/render.ts&#45;&gt;render/common.ts -->
<g id="edge12" class="edge">
<title>render/highlights/render.ts&#45;&gt;render/common.ts</title>
<path fill="none" stroke="#757575" d="M439.2,-160.98C461.26,-156.34 486.88,-150.95 509.85,-146.11"/>
<polygon fill="#757575" stroke="#757575" points="510.79,-149.49 519.86,-144 509.35,-142.64 510.79,-149.49"/>
</g>
<!-- state.ts&#45;&gt;defaults.ts -->
<g id="edge14" class="edge">
<title>state.ts&#45;&gt;defaults.ts</title>
<path fill="none" stroke="#757575" d="M605.78,-56.79C622.99,-59.31 645.18,-62.56 664.89,-65.45"/>
<polygon fill="#757575" stroke="#757575" points="664.54,-68.94 674.94,-66.92 665.55,-62.01 664.54,-68.94"/>
</g>
<!-- options.ts -->
<g id="node7" class="node">
<title>options.ts</title>
<path fill="none" stroke="#c6c5fe" d="M604.83,-23C604.83,-23 546.17,-23 546.17,-23 542.33,-23 538.5,-19.17 538.5,-15.33 538.5,-15.33 538.5,-7.67 538.5,-7.67 538.5,-3.83 542.33,0 546.17,0 546.17,0 604.83,0 604.83,0 608.67,0 612.5,-3.83 612.5,-7.67 612.5,-7.67 612.5,-15.33 612.5,-15.33 612.5,-19.17 608.67,-23 604.83,-23"/>
<text text-anchor="middle" x="575.5" y="-7.8" font-family="Arial" font-size="14.00" fill="#c6c5fe">options.ts</text>
</g>
<!-- options.ts&#45;&gt;defaults.ts -->
<g id="edge5" class="edge">
<title>options.ts&#45;&gt;defaults.ts</title>
<path fill="none" stroke="#757575" d="M612.64,-21.74C621.39,-24.58 630.63,-27.89 639,-31.5 654.88,-38.36 671.82,-47.59 685.48,-55.56"/>
<polygon fill="#757575" stroke="#757575" points="683.97,-58.73 694.35,-60.82 687.54,-52.71 683.97,-58.73"/>
</g>
<!-- render/arrows/defs/render.ts&#45;&gt;defaults.ts -->
<g id="edge6" class="edge">
<title>render/arrows/defs/render.ts&#45;&gt;defaults.ts</title>
<path fill="none" stroke="#757575" d="M476.01,-86.93C537.15,-83.21 615.16,-78.46 664.61,-75.45"/>
<polygon fill="#757575" stroke="#757575" points="664.94,-78.93 674.71,-74.83 664.52,-71.95 664.94,-78.93"/>
</g>
<!-- render/arrows/defs/render.ts&#45;&gt;state.ts -->
<g id="edge8" class="edge">
<title>render/arrows/defs/render.ts&#45;&gt;state.ts</title>
<path fill="none" stroke="#757575" d="M439.2,-80.98C469.92,-74.52 507.54,-66.6 535.3,-60.75"/>
<polygon fill="#757575" stroke="#757575" points="536.36,-64.11 545.43,-58.62 534.92,-57.26 536.36,-64.11"/>
</g>
<!-- render/arrows/defs/render.ts&#45;&gt;render/common.ts -->
<g id="edge7" class="edge">
<title>render/arrows/defs/render.ts&#45;&gt;render/common.ts</title>
<path fill="none" stroke="#757575" d="M439.2,-104.02C461.26,-108.66 486.88,-114.05 509.85,-118.89"/>
<polygon fill="#757575" stroke="#757575" points="509.35,-122.36 519.86,-121 510.79,-115.51 509.35,-122.36"/>
</g>
</g>
</svg>
